<svg width="36" height="36" viewBox="0 0 36 36" fill="none" xmlns="http://www.w3.org/2000/svg">
<g id="Layer_1" clip-path="url(#clip0_1048_7529)">
<path id="Vector" d="M0 4.99217C0 4.61741 0 4.24264 0 3.86694C0.0215625 3.81434 0.0525 3.76456 0.0628125 3.71008C0.31125 2.3397 1.03219 1.28209 2.2425 0.606763C2.74125 0.328741 3.32344 0.198184 3.86719 0C11.0156 0 18.1641 0 25.3125 0C25.7362 0.12774 26.1844 0.20288 26.5781 0.391672C28.3444 1.24076 29.2228 2.67126 29.2247 4.6268C29.2294 11.9606 29.2266 19.2934 29.2266 26.6271C29.2266 26.7765 29.2266 26.9249 29.2266 27.1146H29.6822C31.3341 27.1146 32.9859 27.1324 34.6378 27.1052C35.2866 27.0949 35.7487 27.2977 36 27.9111V32.1293C35.9775 32.1932 35.9447 32.2552 35.9325 32.3209C35.5444 34.4436 33.7341 35.9906 31.5825 35.9934C24.7884 36.0019 17.9934 36.0038 11.1994 35.9831C10.6622 35.9812 10.0978 35.8619 9.59437 35.6703C7.82719 34.9978 6.77531 33.3644 6.77531 31.3788C6.77344 24.046 6.77531 16.7132 6.77344 9.3804C6.77344 9.22261 6.75938 9.06481 6.75 8.87602C5.90531 8.87602 5.09812 8.89574 4.29187 8.87132C2.88 8.82999 1.75875 8.20726 0.8925 7.10175C0.404063 6.47808 0.1725 5.74734 0.0009375 4.99029L0 4.99217ZM8.21625 2.10958C8.85094 3.10708 8.88938 4.14966 8.8875 5.21478C8.87813 13.8832 8.88188 22.5517 8.88656 31.2201C8.88656 31.5338 8.90156 31.8579 8.97937 32.1594C9.26812 33.2761 10.3519 34.0097 11.4741 33.8773C12.6572 33.7383 13.5347 32.7765 13.5563 31.5592C13.575 30.5166 13.5609 29.474 13.5609 28.4314C13.5609 27.4771 13.9209 27.1165 14.8725 27.1165C18.8091 27.1165 22.7447 27.1108 26.6813 27.1249C27.0431 27.1259 27.1247 27.0272 27.1238 26.676C27.1134 19.3544 27.1163 12.0329 27.1153 4.71133C27.1153 3.06105 26.1675 2.10958 24.5278 2.10958C19.2441 2.10958 13.9603 2.10958 8.6775 2.10958H8.21531H8.21625ZM14.9944 33.8885H15.5053C20.7431 33.8885 25.9809 33.8585 31.2178 33.9064C32.8134 33.9205 34.0125 32.8384 33.8962 31.1985C33.8578 30.6509 33.8906 30.0977 33.8897 29.5473C33.8897 29.4458 33.8775 29.3444 33.8728 29.2561H15.6844C15.5963 30.8228 15.9412 32.4177 14.9944 33.8885ZM6.75844 6.74765C6.75844 5.88165 6.79313 5.03914 6.75 4.20131C6.68906 3.03287 5.62406 2.10301 4.42406 2.11052C3.21844 2.11803 2.19375 3.07796 2.115 4.27458C2.03437 5.48435 2.9175 6.63776 4.08938 6.7345C4.95937 6.80589 5.84062 6.74859 6.75844 6.74859V6.74765Z" fill="#ED8123"/>
<path id="Vector_2" d="M24.6949 21.3964C24.6902 23.2289 23.2202 24.6932 21.3874 24.6932C19.5499 24.6932 18.0612 23.1951 18.0743 21.3597C18.0874 19.5479 19.5931 18.0629 21.4071 18.0733C23.2287 18.0836 24.6996 19.5704 24.6949 21.3964ZM22.5846 21.3945C22.5884 20.7257 22.0596 20.1866 21.3959 20.1819C20.7396 20.1772 20.1874 20.722 20.1827 21.3785C20.1781 22.0416 20.7124 22.5798 21.379 22.5836C22.054 22.5874 22.5809 22.0679 22.5837 21.3945H22.5846Z" fill="#ED8123"/>
<path id="Vector_3" d="M18.0163 13.5611C19.8904 13.5611 21.7645 13.5573 23.6385 13.5639C24.1635 13.5658 24.5807 13.9114 24.6763 14.3904C24.7738 14.8751 24.5442 15.3579 24.096 15.5523C23.9292 15.6246 23.7351 15.665 23.5542 15.666C19.8529 15.6725 16.1517 15.6725 12.4514 15.6688C11.7689 15.6688 11.3029 15.2245 11.3067 14.6036C11.3104 13.9828 11.7717 13.5629 12.4654 13.562C14.316 13.5592 16.1667 13.562 18.0173 13.562L18.0163 13.5611Z" fill="#ED8123"/>
<path id="Vector_4" d="M17.9833 6.62178C16.1326 6.62178 14.282 6.62366 12.4323 6.62084C11.9092 6.62084 11.5492 6.38791 11.3776 5.95866C11.1526 5.39699 11.4526 4.75078 12.0348 4.57701C12.1998 4.52817 12.3808 4.51502 12.5542 4.51502C16.1851 4.51126 19.8151 4.5122 23.4461 4.51502C23.6083 4.51502 23.7761 4.52723 23.9317 4.56856C24.438 4.70381 24.7389 5.15841 24.6901 5.68534C24.6433 6.19066 24.2326 6.60206 23.7114 6.61333C22.892 6.63118 22.0717 6.62084 21.2523 6.62178C20.163 6.62178 19.0736 6.62178 17.9851 6.62178H17.9833Z" fill="#ED8123"/>
<path id="Vector_5" d="M18.0105 9.03944C19.8489 9.03944 21.6874 9.03663 23.5258 9.04132C24.228 9.0432 24.6864 9.45741 24.6939 10.0764C24.7005 10.5958 24.348 11.0269 23.8361 11.1208C23.7555 11.1359 23.6739 11.1471 23.5924 11.1471C19.8686 11.1481 16.1449 11.1518 12.4211 11.1453C11.7799 11.1443 11.3374 10.7329 11.3074 10.1609C11.2764 9.58234 11.672 9.10801 12.2505 9.05447C12.5064 9.03099 12.7652 9.04132 13.023 9.04132C14.6861 9.04132 16.3483 9.04132 18.0114 9.04132L18.0105 9.03944Z" fill="#ED8123"/>
<path id="Vector_6" d="M13.4823 22.4361C13.1083 22.4361 12.7333 22.4436 12.3592 22.4352C11.7658 22.4211 11.3261 21.9966 11.3064 21.4321C11.2858 20.8478 11.7058 20.3585 12.3058 20.3378C13.0886 20.3115 13.8742 20.3125 14.657 20.3378C15.2336 20.3566 15.6742 20.8469 15.6686 21.3954C15.663 21.9703 15.2083 22.4192 14.6055 22.4343C14.2314 22.4436 13.8564 22.4361 13.4823 22.4361Z" fill="#ED8123"/>
</g>
<defs>
<clipPath id="clip0_1048_7529">
<rect width="36" height="36" fill="white"/>
</clipPath>
</defs>
</svg>
