<svg width="32" height="36" viewBox="0 0 32 36" fill="none" xmlns="http://www.w3.org/2000/svg">
<g id="Vector">
<g id="Vector_2">
<path d="M26.6533 14.5102H19.8574C19.553 14.5102 19.3063 14.7569 19.3063 15.0612C19.3063 15.3655 19.553 15.6123 19.8574 15.6123H26.6533C26.9577 15.6123 27.2043 15.3655 27.2043 15.0612C27.2043 14.7569 26.9577 14.5102 26.6533 14.5102Z" fill="#ED8123"/>
<path d="M26.6533 17.8163H19.8574C19.553 17.8163 19.3063 18.0631 19.3063 18.3674C19.3063 18.6717 19.553 18.9184 19.8574 18.9184H26.6533C26.9577 18.9184 27.2043 18.6717 27.2043 18.3674C27.2043 18.0629 26.9577 17.8163 26.6533 17.8163Z" fill="#ED8123"/>
<path d="M26.6533 21.1224H19.8574C19.553 21.1224 19.3063 21.3691 19.3063 21.6734C19.3063 21.9777 19.553 22.2244 19.8574 22.2244H26.6533C26.9577 22.2244 27.2043 21.9777 27.2043 21.6734C27.2043 21.3691 26.9577 21.1224 26.6533 21.1224Z" fill="#ED8123"/>
<path d="M15.9084 14.5102H12.3268C12.0224 14.5102 11.7757 14.7569 11.7757 15.0612C11.7757 15.3655 12.0224 15.6123 12.3268 15.6123H15.9084C16.2128 15.6123 16.4594 15.3655 16.4594 15.0612C16.4594 14.7569 16.2128 14.5102 15.9084 14.5102Z" fill="#ED8123"/>
<path d="M15.9084 17.8163H12.3268C12.0224 17.8163 11.7757 18.0631 11.7757 18.3674C11.7757 18.6717 12.0224 18.9184 12.3268 18.9184H15.9084C16.2128 18.9184 16.4594 18.6717 16.4594 18.3674C16.4594 18.0631 16.2128 17.8163 15.9084 17.8163Z" fill="#ED8123"/>
<path d="M15.9084 21.1224H12.3268C12.0224 21.1224 11.7757 21.3691 11.7757 21.6734C11.7757 21.9777 12.0224 22.2244 12.3268 22.2244H15.9084C16.2128 22.2244 16.4594 21.9777 16.4594 21.6734C16.4594 21.3691 16.2128 21.1224 15.9084 21.1224Z" fill="#ED8123"/>
<path d="M15.9084 24.4285H12.3268C12.0224 24.4285 11.7757 24.6752 11.7757 24.9795C11.7757 25.2838 12.0224 25.5305 12.3268 25.5305H15.9084C16.2128 25.5305 16.4594 25.2838 16.4594 24.9795C16.4594 24.6752 16.2128 24.4285 15.9084 24.4285Z" fill="#ED8123"/>
<path d="M26.6533 10.8367H12.3268C12.0224 10.8367 11.7757 11.0834 11.7757 11.3877C11.7757 11.6921 12.0224 11.9388 12.3268 11.9388H26.6533C26.9577 11.9388 27.2043 11.6921 27.2043 11.3877C27.2043 11.0834 26.9577 10.8367 26.6533 10.8367Z" fill="#ED8123"/>
<path d="M26.6533 27.8816H12.3268C12.0224 27.8816 11.7757 28.1284 11.7757 28.4327C11.7757 28.737 12.0224 28.9837 12.3268 28.9837H26.6533C26.9577 28.9837 27.2043 28.737 27.2043 28.4327C27.2043 28.1284 26.9577 27.8816 26.6533 27.8816Z" fill="#ED8123"/>
<path d="M15.9084 30.6735H12.3268C12.0224 30.6735 11.7757 30.9202 11.7757 31.2245C11.7757 31.5288 12.0224 31.7756 12.3268 31.7756H15.9084C16.2128 31.7756 16.4594 31.5288 16.4594 31.2245C16.4594 30.9202 16.2128 30.6735 15.9084 30.6735Z" fill="#ED8123"/>
<path d="M19.6161 3.26939C17.3314 3.26939 15.5417 4.55316 15.5417 6.19193C15.5417 7.83084 17.3314 9.11461 19.6161 9.11461C21.9006 9.11468 23.6904 7.83077 23.6904 6.19193C23.6903 4.55309 21.9007 3.26939 19.6161 3.26939ZM19.6161 8.0126C18.0048 8.01267 16.6438 7.17884 16.6438 6.19193C16.6438 5.20509 18.0049 4.3714 19.6161 4.3714C21.2273 4.3714 22.5883 5.20509 22.5883 6.19193C22.5883 7.17884 21.2272 8.0126 19.6161 8.0126Z" fill="#ED8123"/>
<path d="M30.8421 31.3347C30.5378 31.3347 30.2911 31.5814 30.2911 31.8857V34.3376C30.2911 34.6466 30.03 34.8979 29.7092 34.8979H8.97588C8.65497 34.8979 8.39383 34.6465 8.39383 34.3376V3.82964C8.39383 2.76307 7.9484 1.79705 7.23086 1.10201H27.4999C29.0389 1.10201 30.291 2.32566 30.291 3.82964V29.6816C30.291 29.9859 30.5377 30.2326 30.8421 30.2326C31.1465 30.2326 31.3931 29.9859 31.3931 29.6816V3.82964C31.3931 1.71802 29.6466 0 27.4999 0H4.5007C2.35398 0 0.607422 1.71802 0.607422 3.82964V5.06939C0.607422 5.3737 0.854078 5.62043 1.15846 5.62043C1.46284 5.62043 1.7095 5.3737 1.7095 5.06939V3.82964C1.70943 2.32566 2.96155 1.10201 4.5007 1.10201C6.0397 1.10201 7.29182 2.32566 7.29182 3.82964V15.6862C7.25779 15.7142 7.22685 15.7464 7.20013 15.7826C7.03827 16.0012 6.79105 16.1265 6.52169 16.1265C6.29465 16.1265 6.08153 16.0375 5.92143 15.8758C5.818 15.7712 5.67695 15.7124 5.52986 15.7124C5.38277 15.7124 5.24172 15.7712 5.13829 15.8758C4.97819 16.0375 4.76507 16.1265 4.53803 16.1265C4.37976 16.1265 4.22873 16.0824 4.09724 16.0014V13.0124C4.09724 12.7081 3.85059 12.4613 3.5462 12.4613C3.24189 12.4613 2.99516 12.7081 2.99516 13.0124V16.0014C2.86368 16.0824 2.71258 16.1265 2.55437 16.1265C2.08848 16.1265 1.7095 15.7475 1.7095 15.2816V7.64079C1.7095 7.33648 1.46284 7.08975 1.15846 7.08975C0.854078 7.08975 0.607422 7.33648 0.607422 7.64079V15.2816C0.607422 16.3551 1.48084 17.2285 2.55437 17.2285C2.90917 17.2285 3.2492 17.1343 3.5462 16.9577C3.8432 17.1343 4.18323 17.2285 4.53803 17.2285C4.89283 17.2285 5.23286 17.1343 5.52986 16.9577C5.82693 17.1343 6.16689 17.2285 6.52169 17.2285C6.78916 17.2285 7.05093 17.1718 7.29189 17.0672V34.3375C7.29189 35.2542 8.0474 35.9999 8.97595 35.9999H29.7092C30.6377 35.9999 31.3931 35.2542 31.3931 34.3375V31.8857C31.3932 31.5814 31.1465 31.3347 30.8421 31.3347Z" fill="#ED8123"/>
<path d="M26.6533 14.5102H19.8574C19.553 14.5102 19.3063 14.7569 19.3063 15.0612C19.3063 15.3655 19.553 15.6123 19.8574 15.6123H26.6533C26.9577 15.6123 27.2043 15.3655 27.2043 15.0612C27.2043 14.7569 26.9577 14.5102 26.6533 14.5102Z" fill="#ED8123"/>
<path d="M26.6533 17.8163H19.8574C19.553 17.8163 19.3063 18.0631 19.3063 18.3674C19.3063 18.6717 19.553 18.9184 19.8574 18.9184H26.6533C26.9577 18.9184 27.2043 18.6717 27.2043 18.3674C27.2043 18.0629 26.9577 17.8163 26.6533 17.8163Z" fill="#ED8123"/>
<path d="M26.6533 21.1224H19.8574C19.553 21.1224 19.3063 21.3691 19.3063 21.6734C19.3063 21.9777 19.553 22.2244 19.8574 22.2244H26.6533C26.9577 22.2244 27.2043 21.9777 27.2043 21.6734C27.2043 21.3691 26.9577 21.1224 26.6533 21.1224Z" fill="#ED8123"/>
<path d="M15.9084 14.5102H12.3268C12.0224 14.5102 11.7757 14.7569 11.7757 15.0612C11.7757 15.3655 12.0224 15.6123 12.3268 15.6123H15.9084C16.2128 15.6123 16.4594 15.3655 16.4594 15.0612C16.4594 14.7569 16.2128 14.5102 15.9084 14.5102Z" fill="#ED8123"/>
<path d="M15.9084 17.8163H12.3268C12.0224 17.8163 11.7757 18.0631 11.7757 18.3674C11.7757 18.6717 12.0224 18.9184 12.3268 18.9184H15.9084C16.2128 18.9184 16.4594 18.6717 16.4594 18.3674C16.4594 18.0631 16.2128 17.8163 15.9084 17.8163Z" fill="#ED8123"/>
<path d="M15.9084 21.1224H12.3268C12.0224 21.1224 11.7757 21.3691 11.7757 21.6734C11.7757 21.9777 12.0224 22.2244 12.3268 22.2244H15.9084C16.2128 22.2244 16.4594 21.9777 16.4594 21.6734C16.4594 21.3691 16.2128 21.1224 15.9084 21.1224Z" fill="#ED8123"/>
<path d="M15.9084 24.4285H12.3268C12.0224 24.4285 11.7757 24.6752 11.7757 24.9795C11.7757 25.2838 12.0224 25.5305 12.3268 25.5305H15.9084C16.2128 25.5305 16.4594 25.2838 16.4594 24.9795C16.4594 24.6752 16.2128 24.4285 15.9084 24.4285Z" fill="#ED8123"/>
<path d="M26.6533 10.8367H12.3268C12.0224 10.8367 11.7757 11.0834 11.7757 11.3877C11.7757 11.6921 12.0224 11.9388 12.3268 11.9388H26.6533C26.9577 11.9388 27.2043 11.6921 27.2043 11.3877C27.2043 11.0834 26.9577 10.8367 26.6533 10.8367Z" fill="#ED8123"/>
<path d="M26.6533 27.8816H12.3268C12.0224 27.8816 11.7757 28.1284 11.7757 28.4327C11.7757 28.737 12.0224 28.9837 12.3268 28.9837H26.6533C26.9577 28.9837 27.2043 28.737 27.2043 28.4327C27.2043 28.1284 26.9577 27.8816 26.6533 27.8816Z" fill="#ED8123"/>
<path d="M15.9084 30.6735H12.3268C12.0224 30.6735 11.7757 30.9202 11.7757 31.2245C11.7757 31.5288 12.0224 31.7756 12.3268 31.7756H15.9084C16.2128 31.7756 16.4594 31.5288 16.4594 31.2245C16.4594 30.9202 16.2128 30.6735 15.9084 30.6735Z" fill="#ED8123"/>
<path d="M19.6161 3.26939C17.3314 3.26939 15.5417 4.55316 15.5417 6.19193C15.5417 7.83084 17.3314 9.11461 19.6161 9.11461C21.9006 9.11468 23.6904 7.83077 23.6904 6.19193C23.6903 4.55309 21.9007 3.26939 19.6161 3.26939ZM19.6161 8.0126C18.0048 8.01267 16.6438 7.17884 16.6438 6.19193C16.6438 5.20509 18.0049 4.3714 19.6161 4.3714C21.2273 4.3714 22.5883 5.20509 22.5883 6.19193C22.5883 7.17884 21.2272 8.0126 19.6161 8.0126Z" fill="#ED8123"/>
<path d="M30.8421 31.3347C30.5378 31.3347 30.2911 31.5814 30.2911 31.8857V34.3376C30.2911 34.6466 30.03 34.8979 29.7092 34.8979H8.97588C8.65497 34.8979 8.39383 34.6465 8.39383 34.3376V3.82964C8.39383 2.76307 7.9484 1.79705 7.23086 1.10201H27.4999C29.0389 1.10201 30.291 2.32566 30.291 3.82964V29.6816C30.291 29.9859 30.5377 30.2326 30.8421 30.2326C31.1465 30.2326 31.3931 29.9859 31.3931 29.6816V3.82964C31.3931 1.71802 29.6466 0 27.4999 0H4.5007C2.35398 0 0.607422 1.71802 0.607422 3.82964V5.06939C0.607422 5.3737 0.854078 5.62043 1.15846 5.62043C1.46284 5.62043 1.7095 5.3737 1.7095 5.06939V3.82964C1.70943 2.32566 2.96155 1.10201 4.5007 1.10201C6.0397 1.10201 7.29182 2.32566 7.29182 3.82964V15.6862C7.25779 15.7142 7.22685 15.7464 7.20013 15.7826C7.03827 16.0012 6.79105 16.1265 6.52169 16.1265C6.29465 16.1265 6.08153 16.0375 5.92143 15.8758C5.818 15.7712 5.67695 15.7124 5.52986 15.7124C5.38277 15.7124 5.24172 15.7712 5.13829 15.8758C4.97819 16.0375 4.76507 16.1265 4.53803 16.1265C4.37976 16.1265 4.22873 16.0824 4.09724 16.0014V13.0124C4.09724 12.7081 3.85059 12.4613 3.5462 12.4613C3.24189 12.4613 2.99516 12.7081 2.99516 13.0124V16.0014C2.86368 16.0824 2.71258 16.1265 2.55437 16.1265C2.08848 16.1265 1.7095 15.7475 1.7095 15.2816V7.64079C1.7095 7.33648 1.46284 7.08975 1.15846 7.08975C0.854078 7.08975 0.607422 7.33648 0.607422 7.64079V15.2816C0.607422 16.3551 1.48084 17.2285 2.55437 17.2285C2.90917 17.2285 3.2492 17.1343 3.5462 16.9577C3.8432 17.1343 4.18323 17.2285 4.53803 17.2285C4.89283 17.2285 5.23286 17.1343 5.52986 16.9577C5.82693 17.1343 6.16689 17.2285 6.52169 17.2285C6.78916 17.2285 7.05093 17.1718 7.29189 17.0672V34.3375C7.29189 35.2542 8.0474 35.9999 8.97595 35.9999H29.7092C30.6377 35.9999 31.3931 35.2542 31.3931 34.3375V31.8857C31.3932 31.5814 31.1465 31.3347 30.8421 31.3347Z" fill="#ED8123"/>
<path d="M26.6533 14.5102H19.8574C19.553 14.5102 19.3063 14.7569 19.3063 15.0612C19.3063 15.3655 19.553 15.6123 19.8574 15.6123H26.6533C26.9577 15.6123 27.2043 15.3655 27.2043 15.0612C27.2043 14.7569 26.9577 14.5102 26.6533 14.5102Z" fill="#ED8123"/>
<path d="M26.6533 17.8163H19.8574C19.553 17.8163 19.3063 18.0631 19.3063 18.3674C19.3063 18.6717 19.553 18.9184 19.8574 18.9184H26.6533C26.9577 18.9184 27.2043 18.6717 27.2043 18.3674C27.2043 18.0629 26.9577 17.8163 26.6533 17.8163Z" fill="#ED8123"/>
<path d="M26.6533 21.1224H19.8574C19.553 21.1224 19.3063 21.3691 19.3063 21.6734C19.3063 21.9777 19.553 22.2244 19.8574 22.2244H26.6533C26.9577 22.2244 27.2043 21.9777 27.2043 21.6734C27.2043 21.3691 26.9577 21.1224 26.6533 21.1224Z" fill="#ED8123"/>
<path d="M15.9084 14.5102H12.3268C12.0224 14.5102 11.7757 14.7569 11.7757 15.0612C11.7757 15.3655 12.0224 15.6123 12.3268 15.6123H15.9084C16.2128 15.6123 16.4594 15.3655 16.4594 15.0612C16.4594 14.7569 16.2128 14.5102 15.9084 14.5102Z" fill="#ED8123"/>
<path d="M15.9084 17.8163H12.3268C12.0224 17.8163 11.7757 18.0631 11.7757 18.3674C11.7757 18.6717 12.0224 18.9184 12.3268 18.9184H15.9084C16.2128 18.9184 16.4594 18.6717 16.4594 18.3674C16.4594 18.0631 16.2128 17.8163 15.9084 17.8163Z" fill="#ED8123"/>
<path d="M15.9084 21.1224H12.3268C12.0224 21.1224 11.7757 21.3691 11.7757 21.6734C11.7757 21.9777 12.0224 22.2244 12.3268 22.2244H15.9084C16.2128 22.2244 16.4594 21.9777 16.4594 21.6734C16.4594 21.3691 16.2128 21.1224 15.9084 21.1224Z" fill="#ED8123"/>
<path d="M15.9084 24.4285H12.3268C12.0224 24.4285 11.7757 24.6752 11.7757 24.9795C11.7757 25.2838 12.0224 25.5305 12.3268 25.5305H15.9084C16.2128 25.5305 16.4594 25.2838 16.4594 24.9795C16.4594 24.6752 16.2128 24.4285 15.9084 24.4285Z" fill="#ED8123"/>
<path d="M26.6533 10.8367H12.3268C12.0224 10.8367 11.7757 11.0834 11.7757 11.3877C11.7757 11.6921 12.0224 11.9388 12.3268 11.9388H26.6533C26.9577 11.9388 27.2043 11.6921 27.2043 11.3877C27.2043 11.0834 26.9577 10.8367 26.6533 10.8367Z" fill="#ED8123"/>
<path d="M26.6533 27.8816H12.3268C12.0224 27.8816 11.7757 28.1284 11.7757 28.4327C11.7757 28.737 12.0224 28.9837 12.3268 28.9837H26.6533C26.9577 28.9837 27.2043 28.737 27.2043 28.4327C27.2043 28.1284 26.9577 27.8816 26.6533 27.8816Z" fill="#ED8123"/>
<path d="M15.9084 30.6735H12.3268C12.0224 30.6735 11.7757 30.9202 11.7757 31.2245C11.7757 31.5288 12.0224 31.7756 12.3268 31.7756H15.9084C16.2128 31.7756 16.4594 31.5288 16.4594 31.2245C16.4594 30.9202 16.2128 30.6735 15.9084 30.6735Z" fill="#ED8123"/>
<path d="M19.6161 3.26939C17.3314 3.26939 15.5417 4.55316 15.5417 6.19193C15.5417 7.83084 17.3314 9.11461 19.6161 9.11461C21.9006 9.11468 23.6904 7.83077 23.6904 6.19193C23.6903 4.55309 21.9007 3.26939 19.6161 3.26939ZM19.6161 8.0126C18.0048 8.01267 16.6438 7.17884 16.6438 6.19193C16.6438 5.20509 18.0049 4.3714 19.6161 4.3714C21.2273 4.3714 22.5883 5.20509 22.5883 6.19193C22.5883 7.17884 21.2272 8.0126 19.6161 8.0126Z" fill="#ED8123"/>
<path d="M30.8421 31.3347C30.5378 31.3347 30.2911 31.5814 30.2911 31.8857V34.3376C30.2911 34.6466 30.03 34.8979 29.7092 34.8979H8.97588C8.65497 34.8979 8.39383 34.6465 8.39383 34.3376V3.82964C8.39383 2.76307 7.9484 1.79705 7.23086 1.10201H27.4999C29.0389 1.10201 30.291 2.32566 30.291 3.82964V29.6816C30.291 29.9859 30.5377 30.2326 30.8421 30.2326C31.1465 30.2326 31.3931 29.9859 31.3931 29.6816V3.82964C31.3931 1.71802 29.6466 0 27.4999 0H4.5007C2.35398 0 0.607422 1.71802 0.607422 3.82964V5.06939C0.607422 5.3737 0.854078 5.62043 1.15846 5.62043C1.46284 5.62043 1.7095 5.3737 1.7095 5.06939V3.82964C1.70943 2.32566 2.96155 1.10201 4.5007 1.10201C6.0397 1.10201 7.29182 2.32566 7.29182 3.82964V15.6862C7.25779 15.7142 7.22685 15.7464 7.20013 15.7826C7.03827 16.0012 6.79105 16.1265 6.52169 16.1265C6.29465 16.1265 6.08153 16.0375 5.92143 15.8758C5.818 15.7712 5.67695 15.7124 5.52986 15.7124C5.38277 15.7124 5.24172 15.7712 5.13829 15.8758C4.97819 16.0375 4.76507 16.1265 4.53803 16.1265C4.37976 16.1265 4.22873 16.0824 4.09724 16.0014V13.0124C4.09724 12.7081 3.85059 12.4613 3.5462 12.4613C3.24189 12.4613 2.99516 12.7081 2.99516 13.0124V16.0014C2.86368 16.0824 2.71258 16.1265 2.55437 16.1265C2.08848 16.1265 1.7095 15.7475 1.7095 15.2816V7.64079C1.7095 7.33648 1.46284 7.08975 1.15846 7.08975C0.854078 7.08975 0.607422 7.33648 0.607422 7.64079V15.2816C0.607422 16.3551 1.48084 17.2285 2.55437 17.2285C2.90917 17.2285 3.2492 17.1343 3.5462 16.9577C3.8432 17.1343 4.18323 17.2285 4.53803 17.2285C4.89283 17.2285 5.23286 17.1343 5.52986 16.9577C5.82693 17.1343 6.16689 17.2285 6.52169 17.2285C6.78916 17.2285 7.05093 17.1718 7.29189 17.0672V34.3375C7.29189 35.2542 8.0474 35.9999 8.97595 35.9999H29.7092C30.6377 35.9999 31.3931 35.2542 31.3931 34.3375V31.8857C31.3932 31.5814 31.1465 31.3347 30.8421 31.3347Z" fill="#ED8123"/>
<path d="M26.6533 14.5102H19.8574C19.553 14.5102 19.3063 14.7569 19.3063 15.0612C19.3063 15.3655 19.553 15.6123 19.8574 15.6123H26.6533C26.9577 15.6123 27.2043 15.3655 27.2043 15.0612C27.2043 14.7569 26.9577 14.5102 26.6533 14.5102Z" fill="#ED8123"/>
<path d="M26.6533 17.8163H19.8574C19.553 17.8163 19.3063 18.0631 19.3063 18.3674C19.3063 18.6717 19.553 18.9184 19.8574 18.9184H26.6533C26.9577 18.9184 27.2043 18.6717 27.2043 18.3674C27.2043 18.0629 26.9577 17.8163 26.6533 17.8163Z" fill="#ED8123"/>
<path d="M26.6533 21.1224H19.8574C19.553 21.1224 19.3063 21.3691 19.3063 21.6734C19.3063 21.9777 19.553 22.2244 19.8574 22.2244H26.6533C26.9577 22.2244 27.2043 21.9777 27.2043 21.6734C27.2043 21.3691 26.9577 21.1224 26.6533 21.1224Z" fill="#ED8123"/>
<path d="M15.9084 14.5102H12.3268C12.0224 14.5102 11.7757 14.7569 11.7757 15.0612C11.7757 15.3655 12.0224 15.6123 12.3268 15.6123H15.9084C16.2128 15.6123 16.4594 15.3655 16.4594 15.0612C16.4594 14.7569 16.2128 14.5102 15.9084 14.5102Z" fill="#ED8123"/>
<path d="M15.9084 17.8163H12.3268C12.0224 17.8163 11.7757 18.0631 11.7757 18.3674C11.7757 18.6717 12.0224 18.9184 12.3268 18.9184H15.9084C16.2128 18.9184 16.4594 18.6717 16.4594 18.3674C16.4594 18.0631 16.2128 17.8163 15.9084 17.8163Z" fill="#ED8123"/>
<path d="M15.9084 21.1224H12.3268C12.0224 21.1224 11.7757 21.3691 11.7757 21.6734C11.7757 21.9777 12.0224 22.2244 12.3268 22.2244H15.9084C16.2128 22.2244 16.4594 21.9777 16.4594 21.6734C16.4594 21.3691 16.2128 21.1224 15.9084 21.1224Z" fill="#ED8123"/>
<path d="M15.9084 24.4285H12.3268C12.0224 24.4285 11.7757 24.6752 11.7757 24.9795C11.7757 25.2838 12.0224 25.5305 12.3268 25.5305H15.9084C16.2128 25.5305 16.4594 25.2838 16.4594 24.9795C16.4594 24.6752 16.2128 24.4285 15.9084 24.4285Z" fill="#ED8123"/>
<path d="M26.6533 10.8367H12.3268C12.0224 10.8367 11.7757 11.0834 11.7757 11.3877C11.7757 11.6921 12.0224 11.9388 12.3268 11.9388H26.6533C26.9577 11.9388 27.2043 11.6921 27.2043 11.3877C27.2043 11.0834 26.9577 10.8367 26.6533 10.8367Z" fill="#ED8123"/>
<path d="M26.6533 27.8816H12.3268C12.0224 27.8816 11.7757 28.1284 11.7757 28.4327C11.7757 28.737 12.0224 28.9837 12.3268 28.9837H26.6533C26.9577 28.9837 27.2043 28.737 27.2043 28.4327C27.2043 28.1284 26.9577 27.8816 26.6533 27.8816Z" fill="#ED8123"/>
<path d="M15.9084 30.6735H12.3268C12.0224 30.6735 11.7757 30.9202 11.7757 31.2245C11.7757 31.5288 12.0224 31.7756 12.3268 31.7756H15.9084C16.2128 31.7756 16.4594 31.5288 16.4594 31.2245C16.4594 30.9202 16.2128 30.6735 15.9084 30.6735Z" fill="#ED8123"/>
<path d="M19.6161 3.26939C17.3314 3.26939 15.5417 4.55316 15.5417 6.19193C15.5417 7.83084 17.3314 9.11461 19.6161 9.11461C21.9006 9.11468 23.6904 7.83077 23.6904 6.19193C23.6903 4.55309 21.9007 3.26939 19.6161 3.26939ZM19.6161 8.0126C18.0048 8.01267 16.6438 7.17884 16.6438 6.19193C16.6438 5.20509 18.0049 4.3714 19.6161 4.3714C21.2273 4.3714 22.5883 5.20509 22.5883 6.19193C22.5883 7.17884 21.2272 8.0126 19.6161 8.0126Z" fill="#ED8123"/>
<path d="M30.8421 31.3347C30.5378 31.3347 30.2911 31.5814 30.2911 31.8857V34.3376C30.2911 34.6466 30.03 34.8979 29.7092 34.8979H8.97588C8.65497 34.8979 8.39383 34.6465 8.39383 34.3376V3.82964C8.39383 2.76307 7.9484 1.79705 7.23086 1.10201H27.4999C29.0389 1.10201 30.291 2.32566 30.291 3.82964V29.6816C30.291 29.9859 30.5377 30.2326 30.8421 30.2326C31.1465 30.2326 31.3931 29.9859 31.3931 29.6816V3.82964C31.3931 1.71802 29.6466 0 27.4999 0H4.5007C2.35398 0 0.607422 1.71802 0.607422 3.82964V5.06939C0.607422 5.3737 0.854078 5.62043 1.15846 5.62043C1.46284 5.62043 1.7095 5.3737 1.7095 5.06939V3.82964C1.70943 2.32566 2.96155 1.10201 4.5007 1.10201C6.0397 1.10201 7.29182 2.32566 7.29182 3.82964V15.6862C7.25779 15.7142 7.22685 15.7464 7.20013 15.7826C7.03827 16.0012 6.79105 16.1265 6.52169 16.1265C6.29465 16.1265 6.08153 16.0375 5.92143 15.8758C5.818 15.7712 5.67695 15.7124 5.52986 15.7124C5.38277 15.7124 5.24172 15.7712 5.13829 15.8758C4.97819 16.0375 4.76507 16.1265 4.53803 16.1265C4.37976 16.1265 4.22873 16.0824 4.09724 16.0014V13.0124C4.09724 12.7081 3.85059 12.4613 3.5462 12.4613C3.24189 12.4613 2.99516 12.7081 2.99516 13.0124V16.0014C2.86368 16.0824 2.71258 16.1265 2.55437 16.1265C2.08848 16.1265 1.7095 15.7475 1.7095 15.2816V7.64079C1.7095 7.33648 1.46284 7.08975 1.15846 7.08975C0.854078 7.08975 0.607422 7.33648 0.607422 7.64079V15.2816C0.607422 16.3551 1.48084 17.2285 2.55437 17.2285C2.90917 17.2285 3.2492 17.1343 3.5462 16.9577C3.8432 17.1343 4.18323 17.2285 4.53803 17.2285C4.89283 17.2285 5.23286 17.1343 5.52986 16.9577C5.82693 17.1343 6.16689 17.2285 6.52169 17.2285C6.78916 17.2285 7.05093 17.1718 7.29189 17.0672V34.3375C7.29189 35.2542 8.0474 35.9999 8.97595 35.9999H29.7092C30.6377 35.9999 31.3931 35.2542 31.3931 34.3375V31.8857C31.3932 31.5814 31.1465 31.3347 30.8421 31.3347Z" fill="#ED8123"/>
<path d="M26.6533 14.5102H19.8574C19.553 14.5102 19.3063 14.7569 19.3063 15.0612C19.3063 15.3655 19.553 15.6123 19.8574 15.6123H26.6533C26.9577 15.6123 27.2043 15.3655 27.2043 15.0612C27.2043 14.7569 26.9577 14.5102 26.6533 14.5102Z" fill="#ED8123"/>
<path d="M26.6533 17.8163H19.8574C19.553 17.8163 19.3063 18.0631 19.3063 18.3674C19.3063 18.6717 19.553 18.9184 19.8574 18.9184H26.6533C26.9577 18.9184 27.2043 18.6717 27.2043 18.3674C27.2043 18.0629 26.9577 17.8163 26.6533 17.8163Z" fill="#ED8123"/>
<path d="M26.6533 21.1224H19.8574C19.553 21.1224 19.3063 21.3691 19.3063 21.6734C19.3063 21.9777 19.553 22.2244 19.8574 22.2244H26.6533C26.9577 22.2244 27.2043 21.9777 27.2043 21.6734C27.2043 21.3691 26.9577 21.1224 26.6533 21.1224Z" fill="#ED8123"/>
<path d="M15.9084 14.5102H12.3268C12.0224 14.5102 11.7757 14.7569 11.7757 15.0612C11.7757 15.3655 12.0224 15.6123 12.3268 15.6123H15.9084C16.2128 15.6123 16.4594 15.3655 16.4594 15.0612C16.4594 14.7569 16.2128 14.5102 15.9084 14.5102Z" fill="#ED8123"/>
<path d="M15.9084 17.8163H12.3268C12.0224 17.8163 11.7757 18.0631 11.7757 18.3674C11.7757 18.6717 12.0224 18.9184 12.3268 18.9184H15.9084C16.2128 18.9184 16.4594 18.6717 16.4594 18.3674C16.4594 18.0631 16.2128 17.8163 15.9084 17.8163Z" fill="#ED8123"/>
<path d="M15.9084 21.1224H12.3268C12.0224 21.1224 11.7757 21.3691 11.7757 21.6734C11.7757 21.9777 12.0224 22.2244 12.3268 22.2244H15.9084C16.2128 22.2244 16.4594 21.9777 16.4594 21.6734C16.4594 21.3691 16.2128 21.1224 15.9084 21.1224Z" fill="#ED8123"/>
<path d="M15.9084 24.4285H12.3268C12.0224 24.4285 11.7757 24.6752 11.7757 24.9795C11.7757 25.2838 12.0224 25.5305 12.3268 25.5305H15.9084C16.2128 25.5305 16.4594 25.2838 16.4594 24.9795C16.4594 24.6752 16.2128 24.4285 15.9084 24.4285Z" fill="#ED8123"/>
<path d="M26.6533 10.8367H12.3268C12.0224 10.8367 11.7757 11.0834 11.7757 11.3877C11.7757 11.6921 12.0224 11.9388 12.3268 11.9388H26.6533C26.9577 11.9388 27.2043 11.6921 27.2043 11.3877C27.2043 11.0834 26.9577 10.8367 26.6533 10.8367Z" fill="#ED8123"/>
<path d="M26.6533 27.8816H12.3268C12.0224 27.8816 11.7757 28.1284 11.7757 28.4327C11.7757 28.737 12.0224 28.9837 12.3268 28.9837H26.6533C26.9577 28.9837 27.2043 28.737 27.2043 28.4327C27.2043 28.1284 26.9577 27.8816 26.6533 27.8816Z" fill="#ED8123"/>
<path d="M15.9084 30.6735H12.3268C12.0224 30.6735 11.7757 30.9202 11.7757 31.2245C11.7757 31.5288 12.0224 31.7756 12.3268 31.7756H15.9084C16.2128 31.7756 16.4594 31.5288 16.4594 31.2245C16.4594 30.9202 16.2128 30.6735 15.9084 30.6735Z" fill="#ED8123"/>
<path d="M19.6161 3.26939C17.3314 3.26939 15.5417 4.55316 15.5417 6.19193C15.5417 7.83084 17.3314 9.11461 19.6161 9.11461C21.9006 9.11468 23.6904 7.83077 23.6904 6.19193C23.6903 4.55309 21.9007 3.26939 19.6161 3.26939ZM19.6161 8.0126C18.0048 8.01267 16.6438 7.17884 16.6438 6.19193C16.6438 5.20509 18.0049 4.3714 19.6161 4.3714C21.2273 4.3714 22.5883 5.20509 22.5883 6.19193C22.5883 7.17884 21.2272 8.0126 19.6161 8.0126Z" fill="#ED8123"/>
<path d="M30.8421 31.3347C30.5378 31.3347 30.2911 31.5814 30.2911 31.8857V34.3376C30.2911 34.6466 30.03 34.8979 29.7092 34.8979H8.97588C8.65497 34.8979 8.39383 34.6465 8.39383 34.3376V3.82964C8.39383 2.76307 7.9484 1.79705 7.23086 1.10201H27.4999C29.0389 1.10201 30.291 2.32566 30.291 3.82964V29.6816C30.291 29.9859 30.5377 30.2326 30.8421 30.2326C31.1465 30.2326 31.3931 29.9859 31.3931 29.6816V3.82964C31.3931 1.71802 29.6466 0 27.4999 0H4.5007C2.35398 0 0.607422 1.71802 0.607422 3.82964V5.06939C0.607422 5.3737 0.854078 5.62043 1.15846 5.62043C1.46284 5.62043 1.7095 5.3737 1.7095 5.06939V3.82964C1.70943 2.32566 2.96155 1.10201 4.5007 1.10201C6.0397 1.10201 7.29182 2.32566 7.29182 3.82964V15.6862C7.25779 15.7142 7.22685 15.7464 7.20013 15.7826C7.03827 16.0012 6.79105 16.1265 6.52169 16.1265C6.29465 16.1265 6.08153 16.0375 5.92143 15.8758C5.818 15.7712 5.67695 15.7124 5.52986 15.7124C5.38277 15.7124 5.24172 15.7712 5.13829 15.8758C4.97819 16.0375 4.76507 16.1265 4.53803 16.1265C4.37976 16.1265 4.22873 16.0824 4.09724 16.0014V13.0124C4.09724 12.7081 3.85059 12.4613 3.5462 12.4613C3.24189 12.4613 2.99516 12.7081 2.99516 13.0124V16.0014C2.86368 16.0824 2.71258 16.1265 2.55437 16.1265C2.08848 16.1265 1.7095 15.7475 1.7095 15.2816V7.64079C1.7095 7.33648 1.46284 7.08975 1.15846 7.08975C0.854078 7.08975 0.607422 7.33648 0.607422 7.64079V15.2816C0.607422 16.3551 1.48084 17.2285 2.55437 17.2285C2.90917 17.2285 3.2492 17.1343 3.5462 16.9577C3.8432 17.1343 4.18323 17.2285 4.53803 17.2285C4.89283 17.2285 5.23286 17.1343 5.52986 16.9577C5.82693 17.1343 6.16689 17.2285 6.52169 17.2285C6.78916 17.2285 7.05093 17.1718 7.29189 17.0672V34.3375C7.29189 35.2542 8.0474 35.9999 8.97595 35.9999H29.7092C30.6377 35.9999 31.3931 35.2542 31.3931 34.3375V31.8857C31.3932 31.5814 31.1465 31.3347 30.8421 31.3347Z" fill="#ED8123"/>
<path d="M26.6533 14.5102H19.8574C19.553 14.5102 19.3063 14.7569 19.3063 15.0612C19.3063 15.3655 19.553 15.6123 19.8574 15.6123H26.6533C26.9577 15.6123 27.2043 15.3655 27.2043 15.0612C27.2043 14.7569 26.9577 14.5102 26.6533 14.5102Z" fill="#ED8123"/>
<path d="M26.6533 17.8163H19.8574C19.553 17.8163 19.3063 18.0631 19.3063 18.3674C19.3063 18.6717 19.553 18.9184 19.8574 18.9184H26.6533C26.9577 18.9184 27.2043 18.6717 27.2043 18.3674C27.2043 18.0629 26.9577 17.8163 26.6533 17.8163Z" fill="#ED8123"/>
<path d="M26.6533 21.1224H19.8574C19.553 21.1224 19.3063 21.3691 19.3063 21.6734C19.3063 21.9777 19.553 22.2244 19.8574 22.2244H26.6533C26.9577 22.2244 27.2043 21.9777 27.2043 21.6734C27.2043 21.3691 26.9577 21.1224 26.6533 21.1224Z" fill="#ED8123"/>
<path d="M15.9084 14.5102H12.3268C12.0224 14.5102 11.7757 14.7569 11.7757 15.0612C11.7757 15.3655 12.0224 15.6123 12.3268 15.6123H15.9084C16.2128 15.6123 16.4594 15.3655 16.4594 15.0612C16.4594 14.7569 16.2128 14.5102 15.9084 14.5102Z" fill="#ED8123"/>
<path d="M15.9084 17.8163H12.3268C12.0224 17.8163 11.7757 18.0631 11.7757 18.3674C11.7757 18.6717 12.0224 18.9184 12.3268 18.9184H15.9084C16.2128 18.9184 16.4594 18.6717 16.4594 18.3674C16.4594 18.0631 16.2128 17.8163 15.9084 17.8163Z" fill="#ED8123"/>
<path d="M15.9084 21.1224H12.3268C12.0224 21.1224 11.7757 21.3691 11.7757 21.6734C11.7757 21.9777 12.0224 22.2244 12.3268 22.2244H15.9084C16.2128 22.2244 16.4594 21.9777 16.4594 21.6734C16.4594 21.3691 16.2128 21.1224 15.9084 21.1224Z" fill="#ED8123"/>
<path d="M15.9084 24.4285H12.3268C12.0224 24.4285 11.7757 24.6752 11.7757 24.9795C11.7757 25.2838 12.0224 25.5305 12.3268 25.5305H15.9084C16.2128 25.5305 16.4594 25.2838 16.4594 24.9795C16.4594 24.6752 16.2128 24.4285 15.9084 24.4285Z" fill="#ED8123"/>
<path d="M26.6533 10.8367H12.3268C12.0224 10.8367 11.7757 11.0834 11.7757 11.3877C11.7757 11.6921 12.0224 11.9388 12.3268 11.9388H26.6533C26.9577 11.9388 27.2043 11.6921 27.2043 11.3877C27.2043 11.0834 26.9577 10.8367 26.6533 10.8367Z" fill="#ED8123"/>
<path d="M26.6533 27.8816H12.3268C12.0224 27.8816 11.7757 28.1284 11.7757 28.4327C11.7757 28.737 12.0224 28.9837 12.3268 28.9837H26.6533C26.9577 28.9837 27.2043 28.737 27.2043 28.4327C27.2043 28.1284 26.9577 27.8816 26.6533 27.8816Z" fill="#ED8123"/>
<path d="M15.9084 30.6735H12.3268C12.0224 30.6735 11.7757 30.9202 11.7757 31.2245C11.7757 31.5288 12.0224 31.7756 12.3268 31.7756H15.9084C16.2128 31.7756 16.4594 31.5288 16.4594 31.2245C16.4594 30.9202 16.2128 30.6735 15.9084 30.6735Z" fill="#ED8123"/>
<path d="M19.6161 3.26939C17.3314 3.26939 15.5417 4.55316 15.5417 6.19193C15.5417 7.83084 17.3314 9.11461 19.6161 9.11461C21.9006 9.11468 23.6904 7.83077 23.6904 6.19193C23.6903 4.55309 21.9007 3.26939 19.6161 3.26939ZM19.6161 8.0126C18.0048 8.01267 16.6438 7.17884 16.6438 6.19193C16.6438 5.20509 18.0049 4.3714 19.6161 4.3714C21.2273 4.3714 22.5883 5.20509 22.5883 6.19193C22.5883 7.17884 21.2272 8.0126 19.6161 8.0126Z" fill="#ED8123"/>
<path d="M30.8421 31.3347C30.5378 31.3347 30.2911 31.5814 30.2911 31.8857V34.3376C30.2911 34.6466 30.03 34.8979 29.7092 34.8979H8.97588C8.65497 34.8979 8.39383 34.6465 8.39383 34.3376V3.82964C8.39383 2.76307 7.9484 1.79705 7.23086 1.10201H27.4999C29.0389 1.10201 30.291 2.32566 30.291 3.82964V29.6816C30.291 29.9859 30.5377 30.2326 30.8421 30.2326C31.1465 30.2326 31.3931 29.9859 31.3931 29.6816V3.82964C31.3931 1.71802 29.6466 0 27.4999 0H4.5007C2.35398 0 0.607422 1.71802 0.607422 3.82964V5.06939C0.607422 5.3737 0.854078 5.62043 1.15846 5.62043C1.46284 5.62043 1.7095 5.3737 1.7095 5.06939V3.82964C1.70943 2.32566 2.96155 1.10201 4.5007 1.10201C6.0397 1.10201 7.29182 2.32566 7.29182 3.82964V15.6862C7.25779 15.7142 7.22685 15.7464 7.20013 15.7826C7.03827 16.0012 6.79105 16.1265 6.52169 16.1265C6.29465 16.1265 6.08153 16.0375 5.92143 15.8758C5.818 15.7712 5.67695 15.7124 5.52986 15.7124C5.38277 15.7124 5.24172 15.7712 5.13829 15.8758C4.97819 16.0375 4.76507 16.1265 4.53803 16.1265C4.37976 16.1265 4.22873 16.0824 4.09724 16.0014V13.0124C4.09724 12.7081 3.85059 12.4613 3.5462 12.4613C3.24189 12.4613 2.99516 12.7081 2.99516 13.0124V16.0014C2.86368 16.0824 2.71258 16.1265 2.55437 16.1265C2.08848 16.1265 1.7095 15.7475 1.7095 15.2816V7.64079C1.7095 7.33648 1.46284 7.08975 1.15846 7.08975C0.854078 7.08975 0.607422 7.33648 0.607422 7.64079V15.2816C0.607422 16.3551 1.48084 17.2285 2.55437 17.2285C2.90917 17.2285 3.2492 17.1343 3.5462 16.9577C3.8432 17.1343 4.18323 17.2285 4.53803 17.2285C4.89283 17.2285 5.23286 17.1343 5.52986 16.9577C5.82693 17.1343 6.16689 17.2285 6.52169 17.2285C6.78916 17.2285 7.05093 17.1718 7.29189 17.0672V34.3375C7.29189 35.2542 8.0474 35.9999 8.97595 35.9999H29.7092C30.6377 35.9999 31.3931 35.2542 31.3931 34.3375V31.8857C31.3932 31.5814 31.1465 31.3347 30.8421 31.3347Z" fill="#ED8123"/>
</g>
</g>
</svg>
