<svg width="37" height="40" viewBox="0 0 37 40" fill="none" xmlns="http://www.w3.org/2000/svg">
<g id="Layer_1" clip-path="url(#clip0_1260_2366)">
<path id="Vector" d="M30.4054 32.3594C32.3486 32.3377 32.6486 33.0162 32.7417 34.301C34.2872 34.4761 35.2895 35.2979 35.7381 36.7765C35.9017 36.7765 36.0622 36.7736 36.2228 36.7765C36.7524 36.791 36.982 36.9935 36.9925 37.497C37.006 38.0873 37.0015 38.6776 36.9925 39.2679C36.985 39.7309 36.7089 39.9551 36.2498 39.9913C36.1072 40.0029 35.9617 39.9942 35.8191 39.9942C30.9141 39.9942 26.0076 40.0014 21.1026 39.9971C14.418 39.9913 7.7334 39.9797 1.05033 39.9696C0.159049 39.9696 0.00300093 39.822 0.00300093 38.9829C0 26.3103 0 13.6362 0 0.963576C0 0.140341 0.147046 0 1.00831 0C10.1011 0 19.194 0 28.2868 0C29.1256 0 29.2801 0.151915 29.2801 0.983832C29.2801 5.75831 29.2861 10.5328 29.2711 15.3073C29.2711 15.7138 29.3701 15.899 29.8008 16.0292C31.9884 16.6875 33.1138 18.9691 32.14 21.0077C30.434 24.5784 30.3769 28.3662 30.3559 32.1727C30.3559 32.2219 30.3814 32.2711 30.4054 32.3608V32.3594ZM26.8673 32.3579C26.8914 32.274 26.9169 32.2248 26.9169 32.1756C26.9004 28.3691 26.8493 24.5813 25.1373 21.012C24.165 18.9836 25.2844 16.6991 27.475 16.0321C27.9132 15.899 27.9972 15.7022 27.9957 15.3044C27.9822 10.8265 27.9867 6.34716 27.9867 1.86783V1.28188H1.32941V38.6834H20.3058C20.3058 38.1785 20.2293 37.6967 20.3238 37.2482C20.4589 36.6087 21.0831 36.8228 21.5467 36.7534C21.9773 35.2718 23.0247 34.4775 24.5566 34.2851C24.6797 32.7573 24.9468 32.5373 26.8659 32.3565L26.8673 32.3579ZM29.0415 32.3652C29.0415 32.1221 29.0385 31.9167 29.0415 31.7127C29.1165 27.8424 29.2141 23.9823 31.0146 20.3812C31.5068 19.396 31.0506 18.2067 30.1354 17.5628C29.1946 16.9017 27.9522 16.9306 27.0369 17.6337C26.1441 18.321 25.8035 19.4987 26.3257 20.5433C27.6536 23.1967 28.0167 26.0368 28.1487 28.9232C28.2013 30.0604 28.1578 31.2005 28.1578 32.3652H29.043H29.0415ZM22.9181 36.7288H34.3577C33.9481 35.92 33.3224 35.5655 32.4791 35.5626C29.9148 35.5568 27.3505 35.5568 24.7862 35.5626C23.9429 35.5655 23.3202 35.9243 22.9181 36.7273V36.7288ZM35.6436 38.054H21.6352V38.6371H35.6436V38.054ZM31.3492 34.2865C31.5038 33.744 31.2682 33.6253 30.8046 33.6311C29.3521 33.6499 27.8982 33.6355 26.4442 33.6384C25.856 33.6398 25.8095 33.7078 25.9671 34.2851H31.3477L31.3492 34.2865Z" fill="#ED8123" stroke="#ED8123" stroke-width="0.2"/>
<path id="Vector_2" d="M10.4806 26.3479C12.8453 26.3479 14.7734 28.2128 14.7614 30.4829C14.7494 32.7602 12.8183 34.602 10.4506 34.5933C8.11585 34.5846 6.21025 32.7414 6.19975 30.48C6.18925 28.2056 8.11434 26.3465 10.4806 26.3479ZM10.4581 27.5965C8.81356 27.6037 7.47515 28.9088 7.49315 30.4901C7.51116 32.0802 8.85257 33.3519 10.5016 33.3447C12.1401 33.336 13.486 32.0223 13.4695 30.4482C13.453 28.8625 12.1086 27.5907 10.4581 27.5979V27.5965Z" fill="#ED8123" stroke="#ED8123" stroke-width="0.2"/>
<path id="Vector_3" d="M14.6566 5.52102C17.1698 5.52102 19.6831 5.52391 22.1979 5.51813C22.5625 5.51813 22.8851 5.56298 23.0292 5.94349C23.1657 6.30375 22.9316 6.68281 22.5115 6.75515C22.3374 6.78553 22.1529 6.77107 21.9743 6.77107C17.0903 6.77107 12.2078 6.77107 7.32378 6.77107C7.21574 6.77107 7.10771 6.76962 7.00118 6.77107C6.56454 6.7783 6.25995 6.60902 6.21643 6.16341C6.17892 5.77132 6.48952 5.52391 7.00868 5.52391C9.55797 5.51957 12.1073 5.52247 14.6566 5.52247V5.52102Z" fill="#ED8123" stroke="#ED8123" stroke-width="0.2"/>
<path id="Vector_4" d="M14.6204 15.0078C12.1071 15.0078 9.59381 15.0049 7.07903 15.0107C6.69191 15.0107 6.35431 14.9542 6.23577 14.5332C6.13524 14.1758 6.36781 13.8387 6.76544 13.7722C6.90498 13.749 7.05202 13.7592 7.19607 13.7592C12.1521 13.7592 17.1066 13.7592 22.0627 13.7592C22.2232 13.7592 22.4393 13.7085 22.5353 13.7881C22.7454 13.9603 23.02 14.1961 23.032 14.4175C23.0425 14.6012 22.7379 14.8327 22.5278 14.9832C22.4213 15.0598 22.2142 15.0078 22.0537 15.0078C19.5764 15.0078 17.0976 15.0078 14.6204 15.0078Z" fill="#ED8123" stroke="#ED8123" stroke-width="0.2"/>
<path id="Vector_5" d="M14.6191 10.8829C12.1418 10.8829 9.66457 10.8844 7.1888 10.8801C6.97573 10.8801 6.71015 10.9018 6.56611 10.7947C6.39505 10.6674 6.2255 10.3997 6.24351 10.2087C6.26151 10.0206 6.48508 9.80797 6.67564 9.69367C6.82419 9.60396 7.05826 9.63579 7.25482 9.63579C12.1733 9.6329 17.0904 9.63435 22.0089 9.63435C22.0989 9.63435 22.189 9.63145 22.2775 9.63579C22.7891 9.66184 23.1117 9.91792 23.0667 10.2941C23.0142 10.7426 22.6961 10.8858 22.2655 10.8844C19.7162 10.8815 17.1684 10.8844 14.6191 10.8844V10.8829Z" fill="#ED8123" stroke="#ED8123" stroke-width="0.2"/>
<path id="Vector_6" d="M13.9244 23.2473C11.6437 23.2473 9.36295 23.2546 7.08224 23.2372C6.83766 23.2358 6.53007 23.1533 6.36352 22.9985C6.02591 22.6845 6.23898 22.1434 6.71312 22.0291C6.88418 21.9886 7.06874 22.0002 7.24879 22.0002C11.6842 22.0002 16.1195 22.0002 20.5549 22.0002C20.663 22.0002 20.771 21.9958 20.8775 22.0031C21.2887 22.0262 21.5797 22.2042 21.5767 22.6324C21.5737 23.0564 21.2962 23.2473 20.873 23.2488C19.8137 23.2517 18.7544 23.2517 17.695 23.2517C16.4376 23.2517 15.1818 23.2517 13.9244 23.2517V23.2473Z" fill="#ED8123" stroke="#ED8123" stroke-width="0.2"/>
<path id="Vector_7" d="M13.3813 17.887C15.3935 17.887 17.4056 17.887 19.4177 17.887C19.6143 17.887 19.8543 17.8407 19.9984 17.9289C20.201 18.0533 20.45 18.2776 20.462 18.47C20.474 18.6639 20.258 18.9272 20.0674 19.0589C19.9174 19.163 19.6533 19.1312 19.4402 19.1327C15.38 19.1356 11.3197 19.1356 7.25944 19.1341C7.11539 19.1341 6.96985 19.1413 6.8288 19.124C6.43568 19.0733 6.19411 18.8549 6.21961 18.4642C6.24212 18.104 6.47769 17.8971 6.85881 17.8927C7.81011 17.8841 8.7629 17.8855 9.7157 17.8841C10.9371 17.8841 12.1585 17.8841 13.3798 17.8841L13.3813 17.887Z" fill="#ED8123" stroke="#ED8123" stroke-width="0.2"/>
</g>
<defs>
<clipPath id="clip0_1260_2366">
<rect width="37" height="40" fill="white"/>
</clipPath>
</defs>
</svg>
