<svg width="24" height="21" viewBox="0 0 24 21" fill="none" xmlns="http://www.w3.org/2000/svg">
<path id="Vector" d="M23.0028 19.0071L21.333 14.7H19.5008L20.5183 18.9H2.60405L3.62154 14.7H1.78932L0.118336 19.0071C-0.305518 20.1033 0.445692 21 1.78932 21H21.333C22.6767 21 23.4279 20.1033 23.0028 19.0071ZM17.6686 5.25C17.6686 3.85761 17.0251 2.52226 15.8798 1.53769C14.7344 0.553123 13.181 0 11.5612 0C9.94139 0 8.38794 0.553123 7.24258 1.53769C6.09722 2.52226 5.45377 3.85761 5.45377 5.25C5.45377 10.2638 11.5612 15.75 11.5612 15.75C11.5612 15.75 17.6686 10.2638 17.6686 5.25ZM8.26317 5.313C8.26317 4.94075 8.34849 4.57215 8.51424 4.22825C8.68 3.88435 8.92295 3.57189 9.22921 3.30872C9.53547 3.04555 9.89905 2.83683 10.2992 2.69447C10.6993 2.55211 11.1281 2.47891 11.5612 2.47905C12.4357 2.47905 13.2744 2.77768 13.8928 3.30925C14.5112 3.84082 14.8586 4.56178 14.8586 5.31353C14.8586 6.06527 14.5112 6.78623 13.8928 7.3178C13.2744 7.84937 12.4357 8.148 11.5612 8.148C10.6865 8.148 9.84763 7.84931 9.22913 7.31765C8.61064 6.78598 8.26317 6.06489 8.26317 5.313Z" fill="#ED8123"/>
</svg>
