<svg width="23" height="15" viewBox="0 0 23 15" fill="none" xmlns="http://www.w3.org/2000/svg">
<path id="Vector" d="M19.9084 3.75L11.0602 8.4375L2.21204 3.75V1.875L11.0602 6.5625L19.9084 1.875M19.9084 0H2.21204C0.984358 0 0 0.834375 0 1.875V13.125C0 13.6223 0.233054 14.0992 0.647892 14.4508C1.06273 14.8025 1.62537 15 2.21204 15H19.9084C20.495 15 21.0577 14.8025 21.4725 14.4508C21.8874 14.0992 22.1204 13.6223 22.1204 13.125V1.875C22.1204 1.37772 21.8874 0.900805 21.4725 0.549175C21.0577 0.197544 20.495 0 19.9084 0Z" fill="#ED8123"/>
</svg>
