<svg width="42" height="35" viewBox="0 0 42 35" fill="none" xmlns="http://www.w3.org/2000/svg">
<g id="Layer_1" clip-path="url(#clip0_1260_2369)">
<path id="Vector" d="M42 17.4616C42.0079 18.415 41.7167 19.2377 41.15 19.9528C37.6237 24.4201 34.1053 28.9027 30.5634 33.3546C28.8081 35.5613 25.7384 35.5459 23.9832 33.3315C20.4491 28.8873 16.9386 24.4354 13.4281 19.9682C12.2317 18.4458 12.2317 16.5466 13.4281 15.0242C16.9386 10.5646 20.4491 6.10503 23.9832 1.66852C25.7463 -0.545894 28.8003 -0.561272 30.5634 1.65314C34.1132 6.10503 37.6316 10.58 41.1578 15.0549C41.7245 15.7777 42.0236 16.5927 42.0079 17.4693L42 17.4616Z" fill="#ED8123"/>
<path id="Vector_2" d="M14.7268 0.0230713V2.06833C13.7272 2.09908 13.2077 2.79877 12.6646 3.49078C9.38235 7.67355 6.08438 11.841 2.7864 16.0083C1.90484 17.1232 1.90484 17.8768 2.80215 19.007C6.13161 23.2206 9.46107 27.4264 12.7748 31.6476C13.2864 32.2935 13.8059 32.8779 14.7189 32.924V34.9692C13.3021 34.9308 12.2317 34.3464 11.3973 33.2854C9.9412 31.4323 8.47718 29.587 7.01316 27.734C5.03753 25.2274 3.05402 22.7285 1.07838 20.2219C-0.354151 18.4073 -0.362022 16.6081 1.05477 14.8012C4.5023 10.4493 7.94195 6.09732 11.3816 1.7377C12.2159 0.67663 13.2785 0.0845827 14.7268 0.0230713Z" fill="#ED8123"/>
<path id="Vector_3" d="M20.9683 32.9317V34.9769C19.5515 34.9308 18.4811 34.3388 17.6546 33.2777C16.041 31.2247 14.4196 29.1795 12.7981 27.1265C10.9563 24.7891 9.11449 22.4594 7.26479 20.1219C5.92671 18.4304 5.92671 16.5696 7.26479 14.8704C10.7123 10.5031 14.1677 6.13577 17.6152 1.76077C18.4653 0.699699 19.5279 0.0768953 20.9683 0.0307617V2.08371C20.0789 2.12984 19.5673 2.69113 19.0714 3.32162C15.7183 7.58129 12.3574 11.8333 8.99643 16.0929C8.18571 17.1156 8.18571 17.8998 8.99643 18.9225C12.4203 23.2667 15.86 27.6033 19.276 31.9475C19.7168 32.5088 20.2442 32.8702 20.9762 32.9394L20.9683 32.9317Z" fill="#ED8123"/>
</g>
<defs>
<clipPath id="clip0_1260_2369">
<rect width="42" height="35" fill="white"/>
</clipPath>
</defs>
</svg>
