<svg width="41" height="42" viewBox="0 0 41 42" fill="none" xmlns="http://www.w3.org/2000/svg">
<g id="Layer_1" clip-path="url(#clip0_1260_2559)">
<path id="Vector" d="M17.0168 21.6443C14.2355 18.9074 11.4121 16.1303 8.6123 13.3751C11.6226 10.4129 14.6526 7.43118 17.6617 4.47015C20.4603 7.22411 23.2836 10.0024 26.0649 12.7393C23.0658 15.6906 20.0382 18.6699 17.0155 21.6443H17.0168Z" fill="#ED8123"/>
<path id="Vector_2" d="M23.9225 16.4641C24.7604 17.1949 25.6603 17.9793 26.5577 18.7649C30.9543 22.6078 35.3545 26.447 39.7449 30.2972C41.1226 31.5055 41.3874 33.3447 40.4294 34.7856C39.1656 36.6845 36.4636 36.8806 34.8867 35.1669C33.436 33.5907 32.0126 31.9902 30.578 30.4007C27.4006 26.8794 24.2232 23.3593 21.0471 19.838C20.9456 19.7247 20.8491 19.6078 20.7637 19.5103C21.8071 18.5042 22.8382 17.5103 23.9212 16.4665L23.9225 16.4641Z" fill="#ED8123"/>
<path id="Vector_3" d="M11.9038 42C8.38478 42 4.86456 42 1.34557 42C0.294697 42 0.00382029 41.7113 0.00382029 40.6723C0.00382029 40.0036 -0.00855744 39.3349 0.0112469 38.6675C0.0570445 37.1656 1.28615 35.9549 2.8148 35.9513C8.86504 35.9403 14.9165 35.9403 20.9667 35.95C22.5387 35.9525 23.7715 37.1681 23.8198 38.7247C23.8396 39.3617 23.8248 40 23.8248 40.6382C23.8248 41.7064 23.5314 42 22.4607 42C18.9418 42 15.4215 42 11.9025 42H11.9038Z" fill="#ED8123"/>
<path id="Vector_4" d="M3.14518 35.0183C3.14518 34.5177 3.12166 34.0621 3.14889 33.609C3.23677 32.1352 4.42256 30.961 5.92026 30.9525C9.91827 30.9281 13.915 30.9257 17.913 30.9537C19.4405 30.9647 20.6436 32.2144 20.6807 33.715C20.6918 34.1376 20.6819 34.5615 20.6819 35.0183H3.14518Z" fill="#ED8123"/>
<path id="Vector_5" d="M6.19508 13.2241C6.78426 13.2168 7.28928 13.419 7.70022 13.8234C10.6721 16.7418 13.6465 19.659 16.6048 22.592C17.4712 23.4507 17.4378 24.7528 16.5862 25.5774C15.7457 26.3922 14.4473 26.4202 13.5858 25.5786C10.604 22.6687 7.63833 19.7442 4.67757 16.8149C4.01289 16.1571 3.87178 15.3484 4.23445 14.5018C4.59093 13.6687 5.27666 13.2546 6.19508 13.2241Z" fill="#ED8123"/>
<path id="Vector_6" d="M19.6606 2.11247e-05C20.2498 -0.00241493 20.7499 0.205868 21.1621 0.610252C24.1216 3.52012 27.0848 6.42633 30.0332 9.34594C30.9058 10.2107 30.891 11.4933 30.048 12.3338C29.2113 13.1681 27.8881 13.1888 27.0143 12.3338C24.0362 9.42146 21.0668 6.49941 18.1072 3.56884C17.4426 2.90989 17.3175 2.09746 17.6876 1.25337C18.0515 0.421458 18.7422 0.0207276 19.6606 2.11247e-05Z" fill="#ED8123"/>
</g>
<defs>
<clipPath id="clip0_1260_2559">
<rect width="41" height="42" fill="white"/>
</clipPath>
</defs>
</svg>
