<svg width="26" height="41" viewBox="0 0 26 41" fill="none" xmlns="http://www.w3.org/2000/svg">
<g id="Layer_1" clip-path="url(#clip0_1260_2373)">
<path id="Vector" d="M13.7573 0.00737443C16.9239 -0.111712 20.1054 1.10148 22.7886 3.63207C27.1134 7.7093 26.6376 14.1132 23.9095 17.7915C22.6734 19.4587 21.0931 20.7463 19.426 21.952C18.356 22.7261 17.2725 23.4897 16.2789 24.3546C14.9455 25.5157 14.3439 27.0415 14.3349 28.8085C14.3274 30.2062 13.3562 31.2125 12.0737 31.1946C10.7808 31.1768 9.85144 30.1556 9.85893 28.7623C9.87539 25.1808 11.4527 22.3763 14.2272 20.1955C15.3241 19.3336 16.4974 18.5685 17.6092 17.7245C18.2602 17.2303 18.8828 16.6914 19.4724 16.1257C22.181 13.5237 22.6419 8.33152 18.2138 5.69673C17.1678 5.07451 16.0738 4.65473 14.8647 4.54606C12.798 4.3585 10.7389 4.3719 8.8458 5.34692C6.39007 6.61221 4.88011 8.60691 4.47456 11.3653C4.29049 12.6157 3.20254 13.4999 2.00236 13.3466C0.682456 13.1769 -0.155578 12.0768 0.0254972 10.7222C0.332277 8.43721 1.2601 6.4187 2.72217 4.64282C5.43979 1.34114 9.02688 -0.01942 13.7573 0.00737443Z" fill="#ED8123"/>
<path id="Vector_2" d="M12.1097 33.8801C14.1016 33.886 15.6923 35.4803 15.6804 37.4572C15.6684 39.3983 14.0716 40.9851 12.1127 41C10.1478 41.0149 8.51367 39.3953 8.51367 37.4333C8.51367 35.4595 10.1164 33.8726 12.1082 33.8801H12.1097Z" fill="#ED8123"/>
</g>
<defs>
<clipPath id="clip0_1260_2373">
<rect width="26" height="41" fill="white"/>
</clipPath>
</defs>
</svg>
