<svg width="40" height="39" viewBox="0 0 40 39" fill="none" xmlns="http://www.w3.org/2000/svg">
<g id="Layer_1" clip-path="url(#clip0_1260_2361)">
<path id="Vector" d="M3.65891 3.21282C3.65891 2.89477 3.65339 2.57239 3.65891 2.25217C3.68654 0.997363 4.69767 0.00741087 5.95523 -0.000187448C7.2349 -0.00887124 8.25929 0.981081 8.28802 2.25543C8.29465 2.56587 8.28802 2.87632 8.28802 3.21824H12.2596C12.2596 2.90346 12.2541 2.58433 12.2596 2.26411C12.2872 0.98868 13.3083 -0.00452934 14.5869 -0.000187448C15.8467 0.00415445 16.86 0.987594 16.8909 2.24349C16.8987 2.56479 16.8921 2.88717 16.8921 3.22801H20.8637C20.8637 2.92734 20.8603 2.62232 20.8637 2.3173C20.8791 1.00822 21.8858 0.000898026 23.1765 -0.000187448C24.4684 -0.00127292 25.4762 1.00279 25.495 2.31187C25.4994 2.60712 25.495 2.90346 25.495 3.22476C25.7635 3.24212 26.0099 3.24104 26.2497 3.27686C27.9582 3.5276 29.1273 4.85188 29.1328 6.56259C29.1417 9.40545 29.1351 12.2494 29.1351 15.0922C29.1351 15.2399 29.1351 15.3886 29.1351 15.635C29.2931 15.4906 29.397 15.3994 29.4953 15.3028C30.7142 14.1066 31.9309 12.9083 33.1498 11.7121C33.8581 11.0163 34.3664 10.9609 35.2439 11.5102C35.6605 11.0977 36.0815 10.6733 36.5103 10.2565C37.381 9.4087 38.6253 9.36745 39.432 10.1555C40.2321 10.936 40.1846 12.1539 39.3116 13.0168C38.895 13.4293 38.4629 13.8266 38.0131 14.2543C38.2154 14.4638 38.3867 14.6363 38.5524 14.8122C39.7381 16.0692 39.8111 17.9601 38.6021 19.1964C36.5865 21.2556 34.5068 23.2528 32.4469 25.2696C32.1353 25.5747 31.7629 25.5714 31.4888 25.3076C31.1982 25.0287 31.2192 24.6466 31.5629 24.3079C33.52 22.3812 35.4814 20.4599 37.4385 18.5332C38.1402 17.8428 38.3027 17.1025 37.9325 16.2396C37.8231 16.3362 37.7214 16.4187 37.6286 16.5099C34.8792 19.2084 32.1276 21.9058 29.3903 24.6162C29.2478 24.7573 29.1483 25.0091 29.1472 25.2089C29.1328 28.6346 29.1373 32.0593 29.1362 35.485C29.1362 37.6484 27.7548 38.9976 25.5436 38.9976C18.2248 38.9976 10.9048 38.9976 3.58598 38.9976C1.40568 38.9976 0.0188295 37.6386 0.0188295 35.5013C0.0177244 25.9437 0.0420358 16.385 4.33788e-05 6.82745C-0.0099022 4.58377 1.6919 3.14769 3.50089 3.24538C3.53846 3.24755 3.57714 3.23018 3.65781 3.21173L3.65891 3.21282ZM27.8112 26.1456C26.0796 27.8477 24.4385 29.4704 22.7809 31.0769C22.5765 31.2756 22.2947 31.4384 22.0184 31.5176C20.8316 31.8617 19.6348 32.1744 18.438 32.4891C17.1783 32.8202 16.3428 31.9811 16.6876 30.7383C17.0059 29.5909 17.3076 28.4381 17.6534 27.2984C17.743 27.0021 17.9164 26.697 18.1364 26.4789C21.2637 23.3853 24.4032 20.3047 27.546 17.2274C27.7349 17.0418 27.8233 16.8583 27.8178 16.5913C27.8012 15.7652 27.8112 14.9392 27.8112 14.1142V12.3753H1.34159V12.8008C1.34159 20.3818 1.34159 27.9638 1.34159 35.5447C1.34159 36.9179 2.14608 37.6994 3.55614 37.6994C10.9026 37.6994 18.248 37.6994 25.5944 37.6994C27.0233 37.6994 27.8101 36.92 27.8112 35.5057C27.8112 32.5543 27.8112 29.6029 27.8112 26.6515V26.1456ZM8.3057 4.56532C8.21619 6.13166 7.40729 7.07168 6.11878 7.14332C5.53089 7.17588 4.99935 7.01306 4.53854 6.65485C3.86003 6.12623 3.61692 5.40439 3.65007 4.58594C2.36488 4.43397 1.35817 5.28499 1.3438 6.51483C1.33275 7.47656 1.34159 8.4372 1.34159 9.39893C1.34159 9.93624 1.34159 10.4746 1.34159 11.0217H27.8023C27.8023 9.42716 27.8488 7.85756 27.7869 6.29122C27.7427 5.17535 26.6244 4.39381 25.5237 4.59571C25.3535 6.19353 24.6109 7.06082 23.3423 7.14223C22.7854 7.17805 22.277 7.03477 21.8251 6.71347C21.0825 6.18484 20.8283 5.42718 20.8482 4.56857H16.9318C16.6987 6.26625 15.9605 7.10207 14.6687 7.14549C14.0951 7.16503 13.5791 6.99895 13.1326 6.64726C12.4574 6.11755 12.2232 5.39136 12.2486 4.56423H8.3057V4.56532ZM34.3101 12.5674C32.0005 14.8361 29.6765 17.1188 27.4178 19.3364C28.2908 20.2135 29.2014 21.1275 30.0766 22.0056C32.3839 19.7424 34.7035 17.4673 36.9987 15.216C36.1036 14.3346 35.1908 13.4358 34.3101 12.5674ZM24.5048 22.1934C22.7931 23.877 21.0946 25.5454 19.4613 27.1519C20.3421 28.0213 21.2593 28.9266 22.1068 29.7646C23.7744 28.1277 25.474 26.4593 27.1625 24.8007C26.2851 23.941 25.3712 23.0433 24.5048 22.1934ZM4.98278 3.58296C4.98278 4.01498 4.97062 4.44809 4.98609 4.87902C5.00598 5.42718 5.4237 5.83424 5.95192 5.84618C6.49671 5.85812 6.94869 5.44672 6.95974 4.88119C6.97742 4.01715 6.97521 3.15203 6.96084 2.28799C6.952 1.71595 6.51882 1.3013 5.97402 1.3013C5.42812 1.3013 5.00267 1.71595 4.98499 2.28582C4.97173 2.71784 4.98278 3.14986 4.98278 3.58188V3.58296ZM15.5693 3.61444C15.5693 3.19545 15.5748 2.77754 15.5682 2.35855C15.5582 1.73006 15.1427 1.29587 14.567 1.3013C14.0067 1.30672 13.5934 1.73223 13.5868 2.33684C13.578 3.16071 13.578 3.98459 13.5868 4.80846C13.5934 5.41307 14.0067 5.83966 14.5659 5.84618C15.1416 5.85269 15.5571 5.41959 15.5682 4.79001C15.5748 4.39815 15.5693 4.0063 15.5693 3.61553V3.61444ZM24.17 3.57536C24.17 3.14335 24.1822 2.71024 24.1667 2.27931C24.1468 1.71052 23.7147 1.29695 23.1688 1.30238C22.6229 1.30781 22.1986 1.72355 22.1897 2.29668C22.1765 3.14769 22.1776 3.9987 22.1897 4.84863C22.1986 5.42284 22.6218 5.83966 23.1655 5.84618C23.7258 5.85269 24.1523 5.42827 24.1667 4.83126C24.1766 4.41335 24.1689 3.99436 24.1678 3.57536H24.17ZM29.0378 23.0499C28.1261 22.1489 27.2089 21.2436 26.2973 20.3427C26.0265 20.6097 25.7315 20.9006 25.474 21.1546C26.3956 22.0545 27.3161 22.9554 28.2411 23.8596C28.4963 23.6002 28.7803 23.3104 29.0378 23.0499ZM18.6767 28.513C18.4325 29.401 18.1817 30.3138 17.9142 31.2832C18.9198 31.0129 19.8404 30.7654 20.7277 30.5266C20.0415 29.8525 19.3674 29.1904 18.6767 28.513ZM37.0871 13.3577C37.5711 12.8822 38.0341 12.4437 38.4784 11.9856C38.7469 11.7088 38.7359 11.3202 38.4894 11.0771C38.2441 10.8361 37.8662 10.7981 37.5976 11.0478C37.1114 11.4993 36.6561 11.9845 36.1975 12.4459C36.4848 12.7411 36.7677 13.0309 37.0871 13.3587V13.3577Z" fill="#ED8123"/>
<path id="Vector_2" d="M17.2233 17.5489C14.4662 17.5489 11.709 17.5489 8.9519 17.5489C8.81376 17.5489 8.67342 17.5619 8.53971 17.538C8.18388 17.474 7.96839 17.259 7.96729 16.8987C7.96729 16.5394 8.18167 16.3245 8.5386 16.2593C8.65905 16.2376 8.78614 16.2496 8.9099 16.2496C14.4518 16.2496 19.9937 16.2496 25.5356 16.2496C25.6594 16.2496 25.7864 16.2376 25.9069 16.2593C26.2638 16.3234 26.4782 16.5394 26.4793 16.8987C26.4793 17.258 26.2638 17.474 25.908 17.5391C25.7743 17.563 25.6328 17.55 25.4958 17.55C22.7387 17.55 19.9815 17.55 17.2244 17.55L17.2233 17.5489Z" fill="#ED8123"/>
<path id="Vector_3" d="M13.2543 24.0498C14.7572 24.0498 16.259 24.0476 17.7619 24.0509C18.2326 24.052 18.5177 24.2832 18.542 24.6609C18.5675 25.0528 18.2636 25.3437 17.7983 25.348C16.8192 25.3556 15.8413 25.3502 14.8622 25.3502C12.8499 25.3502 10.8364 25.3545 8.8241 25.3437C8.61525 25.3426 8.33235 25.31 8.21853 25.1798C8.07266 25.0137 7.98757 24.7228 8.01409 24.5013C8.04835 24.2104 8.31467 24.0585 8.62188 24.0541C9.20093 24.0454 9.77999 24.0509 10.359 24.0509C11.3238 24.0509 12.2885 24.0509 13.2543 24.0509V24.0498Z" fill="#ED8123"/>
<path id="Vector_4" d="M4.64567 14.9513C5.72311 14.9437 6.62594 15.8165 6.63368 16.8715C6.64141 17.9559 5.75294 18.8439 4.65672 18.846C3.57597 18.8482 2.67976 17.9831 2.6676 16.9247C2.65545 15.8447 3.54281 14.9589 4.64567 14.9503V14.9513ZM4.65672 16.2507C4.3031 16.2463 4.00031 16.5329 3.99147 16.8813C3.98263 17.2298 4.26774 17.5315 4.62246 17.5456C4.99155 17.5608 5.31092 17.2591 5.30981 16.8943C5.30871 16.5459 5.01366 16.2539 4.65782 16.2507H4.65672Z" fill="#ED8123"/>
<path id="Vector_5" d="M4.64677 22.7505C5.72421 22.7429 6.62705 23.6167 6.63368 24.6718C6.64141 25.7562 5.75184 26.643 4.65561 26.6452C3.57486 26.6473 2.67865 25.7811 2.6676 24.7228C2.65545 23.6438 3.54392 22.757 4.64677 22.7494V22.7505ZM4.64125 24.0509C4.28652 24.0552 3.99147 24.3472 3.99037 24.6967C3.98926 25.0463 4.281 25.3404 4.63572 25.3469C5.00592 25.3534 5.31755 25.0452 5.3076 24.6815C5.29766 24.3331 4.99487 24.0476 4.64014 24.052L4.64125 24.0509Z" fill="#ED8123"/>
<path id="Vector_6" d="M6.63356 32.4904C6.63246 33.5737 5.73515 34.4529 4.63782 34.4464C3.55928 34.4399 2.6708 33.5661 2.66749 32.5067C2.66417 31.4288 3.56038 30.5507 4.66434 30.5507C5.74067 30.5507 6.63467 31.4321 6.63356 32.4893V32.4904ZM5.30859 32.5002C5.3097 32.1517 5.01575 31.8587 4.66102 31.8521C4.3074 31.8456 4.00241 32.13 3.99136 32.4785C3.9792 32.8432 4.28862 33.1536 4.65881 33.1471C5.01354 33.1417 5.30749 32.8486 5.30859 32.5002Z" fill="#ED8123"/>
<path id="Vector_7" d="M10.5799 33.1493C9.95998 33.1493 9.33894 33.1547 8.719 33.1471C8.25929 33.1417 7.97197 32.8942 7.96313 32.5132C7.95319 32.1181 8.25045 31.8522 8.73005 31.85C9.98429 31.8456 11.2385 31.8446 12.4928 31.85C12.9525 31.8522 13.2398 32.1029 13.2498 32.4828C13.2597 32.8768 12.9602 33.1417 12.4817 33.1471C11.8474 33.1536 11.2131 33.1482 10.5799 33.1482V33.1493Z" fill="#ED8123"/>
<path id="Vector_8" d="M15.2266 33.146C14.8675 33.1395 14.5736 32.8399 14.5802 32.4872C14.5868 32.1333 14.8907 31.8456 15.2499 31.8522C15.609 31.8587 15.9029 32.1583 15.8974 32.51C15.8908 32.8616 15.5847 33.1526 15.2278 33.146H15.2266Z" fill="#ED8123"/>
</g>
<defs>
<clipPath id="clip0_1260_2361">
<rect width="40" height="39" fill="white"/>
</clipPath>
</defs>
</svg>
