<svg width="40" height="40" viewBox="0 0 40 40" fill="none" xmlns="http://www.w3.org/2000/svg">
<g id="Group 420">
<path id="Vector" d="M38.9069 24.7639H40C39.9173 25.1911 39.8382 25.5872 39.7591 25.9834C39.4571 27.4749 39.1478 28.97 38.8566 30.465C38.8134 30.6854 38.7235 30.7371 38.5042 30.7371C36.3971 30.7302 34.2901 30.7371 32.1794 30.7268C31.9277 30.7268 31.8414 30.7922 31.8126 31.0368C31.5753 32.99 31.3236 34.9397 31.0755 36.8894C30.9569 37.8229 30.8418 38.753 30.7231 39.6865C30.7087 39.7899 30.6908 39.8898 30.6728 40H9.30004C9.23172 39.4695 9.15981 38.9459 9.09509 38.4189C8.84339 36.4519 8.59529 34.4815 8.34718 32.5146C8.28246 32.0151 8.21414 31.5122 8.1674 31.0127C8.14582 30.7991 8.07032 30.7233 7.833 30.7233C5.74391 30.7337 3.65481 30.7233 1.56572 30.7371C1.25649 30.7371 1.163 30.6475 1.10547 30.3616C0.753096 28.5325 0.371954 26.7102 0.00159808 24.8845C-0.0019976 24.8604 0.00159808 24.8328 0.00159808 24.7777H37.1199C37.1199 24.4401 37.1199 24.1301 37.1199 23.8201C37.1163 23.3068 37.2169 22.766 37.0767 22.2906C36.9401 21.8221 36.5589 21.4225 36.2821 20.9919C35.66 20.0205 35.038 19.0491 34.4015 18.088C34.3368 17.9881 34.1894 17.8951 34.0707 17.8814C33.2509 17.7711 32.6109 17.2131 32.4455 16.438C32.2837 15.6767 32.6612 14.8913 33.3767 14.509C34.0887 14.1266 34.9804 14.2265 35.5773 14.757C36.185 15.2978 36.3648 16.1487 35.998 16.8583C35.9045 17.0408 35.9153 17.1614 36.0232 17.3268C36.9257 18.715 37.8246 20.1032 38.7056 21.5052C38.8242 21.6947 38.8961 21.9427 38.9033 22.1632C38.9285 22.921 38.9105 23.6788 38.9105 24.4332C38.9105 24.5366 38.9105 24.6365 38.9105 24.7639H38.9069Z" fill="#ED8123"/>
<path id="Vector_2" d="M6.96289 23.6307C7.47348 21.1264 7.94092 18.629 8.50903 16.1522C8.82905 14.7605 9.67763 13.5996 10.6557 12.5387C10.8354 12.3458 11.0979 12.2011 11.3496 12.0874C13.2841 11.1918 15.2797 10.4649 17.3976 10.0826C17.4695 10.0688 17.5522 9.99989 17.5845 9.93444C17.829 9.41084 17.8255 9.4074 17.3149 9.11115C15.4451 8.02606 14.5174 5.93166 14.9777 3.84759C15.4163 1.86342 17.171 0.313294 19.2817 0.0446047C21.7735 -0.272311 24.1071 1.12625 24.873 3.38944C25.6425 5.66986 24.6033 8.12595 22.3812 9.26272C22.3093 9.30061 22.241 9.3385 22.1511 9.38328C22.2338 9.58308 22.3021 9.77943 22.3956 9.96544C22.4243 10.0206 22.5106 10.0653 22.5789 10.0791C24.7507 10.4753 26.8075 11.2021 28.7671 12.1666C29.1303 12.3458 29.4539 12.6558 29.7128 12.9693C30.7771 14.2576 31.4891 15.6975 31.7767 17.3372C32.1471 19.435 32.5785 21.526 32.9921 23.6445C32.8734 23.6548 32.7943 23.6652 32.7188 23.6652C31.6113 23.6652 30.5038 23.6652 29.3928 23.6686C29.2094 23.6686 29.1267 23.6238 29.0763 23.4412C28.8031 22.4251 28.5118 21.4089 28.2242 20.3961C28.2026 20.3169 28.1738 20.2376 28.1523 20.1584C28.1307 20.1584 28.1055 20.1653 28.0839 20.1687V23.6445H11.9034V20.1687C11.8782 20.1687 11.8494 20.1653 11.8243 20.1619C11.6373 20.8198 11.4503 21.4777 11.2669 22.1357C11.1375 22.587 11.0188 23.0451 10.8786 23.4929C10.857 23.5653 10.742 23.6583 10.67 23.6583C9.49066 23.6686 8.30768 23.6652 7.12829 23.6617C7.10312 23.6617 7.07795 23.6514 6.96649 23.6238L6.96289 23.6307Z" fill="#ED8123"/>
</g>
</svg>
