<svg width="114" height="30" viewBox="0 0 114 30" fill="none" xmlns="http://www.w3.org/2000/svg">
<g id="social icons">
<path id="Vector" d="M29 14.0351C29 6.28772 22.504 0 14.5 0C6.496 0 0 6.28772 0 14.0351C0 20.8281 4.988 26.4842 11.6 27.7895V18.2456H8.7V14.0351H11.6V10.5263C11.6 7.81754 13.8765 5.61403 16.675 5.61403H20.3V9.82456H17.4C16.6025 9.82456 15.95 10.4561 15.95 11.2281V14.0351H20.3V18.2456H15.95V28C23.2725 27.2982 29 21.3193 29 14.0351Z" fill="#ED8123"/>
<g id="Vector_2">
<path d="M70.9288 8.2321C70.8632 6.74435 70.6226 5.72153 70.2779 4.83525C69.9223 3.89448 69.3752 3.05221 68.6584 2.35203C67.9581 1.64095 67.1101 1.08841 66.1801 0.738428C65.2885 0.393785 64.2708 0.153198 62.7828 0.0876028C61.2836 0.0164522 60.8077 0 57.0055 0C53.2032 0 52.7273 0.0164522 51.2337 0.0820475C49.7456 0.147643 48.7226 0.388444 47.8364 0.732872C46.8952 1.08841 46.0528 1.6354 45.3525 2.35203C44.6413 3.05221 44.0888 3.90003 43.7386 4.82991C43.3939 5.72153 43.1532 6.73879 43.0876 8.22655C43.0165 9.72541 43 10.2012 43 14.0028C43 17.8043 43.0165 18.2801 43.0821 19.7735C43.1477 21.2612 43.3885 22.284 43.7332 23.1703C44.0888 24.1111 44.6413 24.9533 45.3525 25.6535C46.0528 26.3646 46.9008 26.9171 47.8308 27.2671C48.7226 27.6118 49.7401 27.8524 51.2283 27.918C52.7217 27.9838 53.1978 28 57.0001 28C60.8024 28 61.2783 27.9838 62.7719 27.918C64.2599 27.8524 65.2829 27.6118 66.1692 27.2671C68.0513 26.5396 69.5393 25.0518 70.267 23.1703C70.6115 22.2787 70.8523 21.2612 70.9179 19.7735C70.9835 18.2801 71 17.8043 71 14.0028C71 10.2012 70.9944 9.72541 70.9288 8.2321ZM68.4069 19.6641C68.3466 21.0315 68.1169 21.7699 67.9254 22.2622C67.4548 23.482 66.4865 24.4502 65.2665 24.9207C64.7741 25.1121 64.0302 25.3418 62.6678 25.4018C61.1907 25.4676 60.7477 25.4839 57.011 25.4839C53.2744 25.4839 52.8258 25.4676 51.354 25.4018C49.9863 25.3418 49.2477 25.1121 48.7553 24.9207C48.1482 24.6963 47.5955 24.3408 47.147 23.8758C46.6819 23.4218 46.3263 22.8748 46.1019 22.2678C45.9105 21.7755 45.6807 21.0315 45.6207 19.6696C45.5549 18.1928 45.5386 17.7496 45.5386 14.0137C45.5386 10.2777 45.5549 9.82925 45.6207 8.35795C45.6807 6.99049 45.9105 6.25206 46.1019 5.75978C46.3263 5.15254 46.6819 4.60022 47.1525 4.15152C47.6064 3.68658 48.1535 3.33104 48.7609 3.10691C49.2533 2.91546 49.9974 2.68577 51.3595 2.62552C52.8367 2.55993 53.2799 2.54347 57.0163 2.54347C60.7586 2.54347 61.2016 2.55993 62.6734 2.62552C64.0411 2.68577 64.7797 2.91546 65.272 3.10691C65.8792 3.33104 66.4318 3.68658 66.8804 4.15152C67.3454 4.60556 67.701 5.15254 67.9254 5.75978C68.1169 6.25206 68.3466 6.99583 68.4069 8.35795C68.4725 9.83481 68.489 10.2777 68.489 14.0137C68.489 17.7496 68.4725 18.1872 68.4069 19.6641Z" fill="#ED8123"/>
<path d="M57.0055 6.80994C53.0337 6.80994 49.8112 10.0316 49.8112 14.0028C49.8112 17.974 53.0337 21.1956 57.0055 21.1956C60.9774 21.1956 64.1997 17.974 64.1997 14.0028C64.1997 10.0316 60.9774 6.80994 57.0055 6.80994ZM57.0055 18.6686C54.4288 18.6686 52.3387 16.5792 52.3387 14.0028C52.3387 11.4264 54.4288 9.33696 57.0055 9.33696C59.5823 9.33696 61.6722 11.4264 61.6722 14.0028C61.6722 16.5792 59.5823 18.6686 57.0055 18.6686Z" fill="#ED8123"/>
<path d="M66.1638 6.52556C66.1638 7.45286 65.4118 8.20475 64.4841 8.20475C63.5566 8.20475 62.8046 7.45286 62.8046 6.52556C62.8046 5.59803 63.5566 4.84636 64.4841 4.84636C65.4118 4.84636 66.1638 5.59803 66.1638 6.52556Z" fill="#ED8123"/>
</g>
<path id="Vector_3" d="M107.837 0H112.285L102.57 11.8594L114 28H105.051L98.0376 18.2128L90.0211 28H85.5696L95.9599 15.3108L85 0.00220678H94.1764L100.507 8.94641L107.837 0ZM106.274 25.1576H108.739L92.83 2.69451H90.1869L106.274 25.1576Z" fill="#ED8123"/>
</g>
</svg>
