<svg width="28" height="28" viewBox="0 0 28 28" fill="none" xmlns="http://www.w3.org/2000/svg">
<g id="Frame">
<path id="Vector" d="M11.7285 9.31933L18.298 18.6807H16.5515L9.99367 9.31933H11.7285ZM24.5 7V21C24.5 22.9332 22.9332 24.5 21 24.5H7C5.06683 24.5 3.5 22.9332 3.5 21V7C3.5 5.06683 5.06683 3.5 7 3.5H21C22.9332 3.5 24.5 5.06683 24.5 7ZM20.461 19.8333L15.5773 12.845L19.5697 8.16667H18.0402L14.8855 11.8533L12.3107 8.16667H7.819L12.4168 14.7385L8.057 19.8333H9.61217L13.1133 15.7313L15.981 19.8333H20.461Z" fill="#ED8123"/>
</g>
</svg>
