<svg width="28" height="28" viewBox="0 0 28 28" fill="none" xmlns="http://www.w3.org/2000/svg">
<g id="Frame">
<path id="Vector" d="M25.1792 7.21684C24.9108 6.2135 24.1198 5.4225 23.1165 5.15417C21.2965 4.6665 14.0002 4.6665 14.0002 4.6665C14.0002 4.6665 6.70383 4.6665 4.88383 5.15417C3.8805 5.4225 3.0895 6.2135 2.82116 7.21684C2.3335 9.03684 2.3335 13.9998 2.3335 13.9998C2.3335 13.9998 2.3335 18.9628 2.82116 20.7828C3.0895 21.7862 3.8805 22.5772 4.88383 22.8455C6.70383 23.3332 14.0002 23.3332 14.0002 23.3332C14.0002 23.3332 21.2965 23.3332 23.1165 22.8455C24.121 22.5772 24.9108 21.7862 25.1792 20.7828C25.6668 18.9628 25.6668 13.9998 25.6668 13.9998C25.6668 13.9998 25.6668 9.03684 25.1792 7.21684ZM11.6668 18.0412V9.9585L18.6668 13.9998L11.6668 18.0412Z" fill="#ED8123"/>
</g>
</svg>
